# xmcd
#
# Track frame offsets:
#	150
#	17762
#	37467
#	56127
#	71512
#	91387
#	109177
#	128132
#	145155
#	162052
#	180755
#	198142
#	218212
#	234227
#	254887
#	274974
#
# Disc length: 3844 seconds
#
# Revision: 0
# Processed by: cddbd v1.5.2PL0 Copyright (c) Steve Scherf et al.
# Submitted via: audiograbber 1.83.01
#
DISCID=ea0f0210
DTITLE=Florence k - Bossa blue
DYEAR=1900
DGENRE=
TTITLE0=Vol de nuit
TTITLE1=las calles del sur
TTITLE2=bru bru marin
TTITLE3=harmonia
TTITLE4=you won't believe me 
TTITLE5=little baby will come back
TTITLE6=chéri
TTITLE7=alejandro
TTITLE8=el silencio
TTITLE9=canzoni per sempre
TTITLE10=le grand mystère
TTITLE11=l'imperfection
TTITLE12=let it burn
TTITLE13=it's no use
TTITLE14=when love is lie
TTITLE15=las calles del sur 
EXTD=
EXTT0=
EXTT1=
EXTT2=
EXTT3=
EXTT4=
EXTT5=
EXTT6=
EXTT7=
EXTT8=
EXTT9=
EXTT10=
EXTT11=
EXTT12=
EXTT13=
EXTT14=
EXTT15=Bonus Reggaton remix par O'Banito
PLAYORDER=
